<svg aria-hidden="true" style="position:absolute;width:0;height:0" xmlns="http://www.w3.org/2000/svg" overflow="hidden"><defs><symbol id="icon-document-code" viewBox="0 0 32 32"><path d="M19.5 3h.5l6 7v18.009A1.998 1.998 0 0124.003 30H8.998a2 2 0 01-1.997-2.007V5.008c0-1.109.897-2.007 2.003-2.007h10.497zM19 4H8.996C8.446 4 8 4.455 8 4.995v23.009c0 .55.455.995 1 .995h15c.552 0 1-.445 1-.993V10.999h-4.002A1.995 1.995 0 0119 8.993V3.999zm1 .5v4.491c0 .557.451 1.009.997 1.009H24.7L20 4.5zM17 18l-2 8h1l2-8h-1zm-4 7l-3-3 3-3 .7.7-2.3 2.3 2.3 2.3-.7.7zm7 0l3-3-3-3-.7.7 2.3 2.3-2.3 2.3.7.7z"/></symbol><symbol id="icon-ruler" viewBox="0 0 32 32"><path d="M6.058 6.835l.686.686-2.808 2.808 2.188 2.188 2.821-2.821.641.641-2.821 2.822 2.16 2.159 6.416-6.416-7.812-7.766-6.393 6.393L3.25 9.644l2.808-2.809zm17.041 9.824l-6.416 6.417 2.159 2.159 2.822-2.821.641.641-2.821 2.821 2.188 2.188 2.807-2.808.686.686-2.807 2.808 2.113 2.114 6.394-6.394-7.766-7.811zm6.723-8.208a1.997 1.997 0 00.012-2.821l-3.512-3.511a1.994 1.994 0 00-2.82.012l-2.17 2.17 6.32 6.32 2.17-2.17zM3.398 25.942l2.623 2.623 5.284-1.877-6.03-6.03-1.877 5.284zM20.65 4.943L5.765 19.829l6.369 6.369L27.02 11.312l-6.37-6.369zM8.657 19.816L20.638 7.835l.698.698L9.354 20.515l-.697-.699zm1.396 1.397l11.98-11.981.698.698L10.75 21.91l-.697-.697zm1.396 1.395L23.43 10.627l.697.698-11.98 11.981-.698-.698zM1.954 30.01l3.066-1.117-1.949-1.949-1.117 3.066z"/></symbol><symbol id="icon-design_services" viewBox="0 0 24 24"><path d="M16.219 11.531l1.594-1.594-3.75-3.75-1.594 1.594-4.125-4.172q-.563-.563-1.406-.563t-1.406.563L3.61 5.531q-.563.563-.563 1.406t.563 1.406l4.125 4.125-4.734 4.781v3.75h3.75l4.781-4.781 4.125 4.172q.469.469 1.008.539t1.031-.094.773-.445l1.922-1.922q.563-.563.563-1.406t-.563-1.406zm-7.031-.468L5.063 6.938l1.875-1.875 1.266 1.266-1.172 1.172 1.406 1.406L9.61 7.735l1.453 1.453zm7.875 7.875l-4.125-4.125 1.875-1.875 1.453 1.453-1.172 1.172 1.406 1.406 1.172-1.172 1.266 1.266zm3.656-11.907Q21 6.75 21 6.328t-.281-.703l-2.344-2.344q-.375-.328-.797-.258t-.609.258l-1.828 1.828 3.75 3.75z"/></symbol><symbol id="icon-laptop" viewBox="0 0 32 32"><path d="M28 22V6c0-1.1-.9-2-2-2H6c-1.1 0-2 .9-2 2v16H0v6h32v-6h-4zm-8 4h-8v-2h8v2zm6-4H6V6.004L6.004 6h19.993l.004.004V22z"/></symbol><symbol id="icon-embed2" viewBox="0 0 40 32"><path d="M26 23l3 3 10-10L29 6l-3 3 7 7zM14 9l-3-3L1 16l10 10 3-3-7-7zm7.916-4.296l2.171.592-6 22.001-2.171-.592 6-22.001z"/></symbol><symbol id="icon-terminal" viewBox="0 0 32 32"><path d="M0 2v28h32V2H0zm30 26H2V4h28v24zM28 6H4v20h24V6zM14 16h-2v2h-2v2H8v-2h2v-2h2v-2h-2v-2H8v-2h2v2h2v2h2v2zm8 4h-6v-2h6v2z"/></symbol><symbol id="icon-wordpress" viewBox="0 0 32 32"><path d="M4 16c0 4.626 2.76 8.624 6.763 10.518L5.039 11.244A11.381 11.381 0 004 16zm20.101-.59c0-1.445-.533-2.445-.989-3.223-.608-.963-1.179-1.778-1.179-2.741 0-1.074.836-2.074 2.015-2.074.053 0 .104.006.155.009A12.134 12.134 0 0016 4.312c-4.192 0-7.881 2.095-10.026 5.268.282.009.547.014.772.014 1.255 0 3.198-.149 3.198-.149.647-.037.723.889.077.963 0 0-.65.074-1.373.111l4.37 12.66 2.626-7.671-1.869-4.989c-.646-.037-1.259-.111-1.259-.111-.647-.037-.571-1 .076-.963 0 0 1.981.149 3.16.149 1.255 0 3.198-.149 3.198-.149.647-.037.723.889.076.963 0 0-.651.074-1.373.111l4.337 12.563 1.197-3.895c.518-1.617.913-2.778.913-3.778zm-7.89 1.612L12.61 27.211a12.29 12.29 0 007.375-.187 1.028 1.028 0 01-.086-.161l-3.688-9.842zm10.319-6.629c.052.372.081.771.081 1.202 0 1.185-.228 2.519-.913 4.186l-3.665 10.321C25.601 24.076 28 20.312 28 16c0-2.032-.533-3.943-1.47-5.607zM16 0C7.163 0 0 7.163 0 16s7.163 16 16 16 16-7.163 16-16S24.837 0 16 0zm0 30C8.268 30 2 23.732 2 16S8.268 2 16 2s14 6.268 14 14-6.268 14-14 14z"/></symbol><symbol id="icon-css3" viewBox="0 0 32 32"><path d="M4.762 1.516L3.688 6.889h21.867l-.684 3.47H2.99l-1.059 5.372h21.865l-1.219 6.127-8.813 2.919-7.638-2.919.523-2.658H1.277l-1.278 6.448 12.632 4.834 14.563-4.834 4.805-24.133z"/></symbol></defs></svg>