<svg aria-hidden="true" style="position: absolute; width: 0; height: 0; overflow: hidden;" version="1.1" xmlns="http://www.w3.org/2000/svg" xmlns:xlink="http://www.w3.org/1999/xlink">
<defs>
<symbol id="icon-document-code" viewBox="0 0 32 32">
<path d="M19.5 3h0.5l6 7v18.009c0 1.093-0.894 1.991-1.997 1.991h-15.005c-1.107 0-1.997-0.899-1.997-2.007v-22.985c0-1.109 0.897-2.007 2.003-2.007h10.497zM19 4h-10.004c-0.55 0-0.996 0.455-0.996 0.995v23.009c0 0.55 0.455 0.995 1 0.995h15c0.552 0 1-0.445 1-0.993v-17.007h-4.002c-1.103 0-1.998-0.887-1.998-2.006v-4.994zM20 4.5v4.491c0 0.557 0.451 1.009 0.997 1.009h3.703l-4.7-5.5zM17 18l-2 8h1l2-8h-1zM13 25l-3-3 3-3 0.7 0.7-2.3 2.3 2.3 2.3-0.7 0.7zM20 25l3-3-3-3-0.7 0.7 2.3 2.3-2.3 2.3 0.7 0.7z"></path>
</symbol>
<symbol id="icon-ruler" viewBox="0 0 32 32">
<path d="M6.058 6.835l0.686 0.686-2.808 2.808 2.188 2.188 2.821-2.821 0.641 0.641-2.821 2.822 2.16 2.159 6.416-6.416-7.812-7.766-6.393 6.393 2.114 2.115 2.808-2.809zM23.099 16.659l-6.416 6.417 2.159 2.159 2.822-2.821 0.641 0.641-2.821 2.821 2.188 2.188 2.807-2.808 0.686 0.686-2.807 2.808 2.113 2.114 6.394-6.394-7.766-7.811zM29.822 8.451c0.781-0.782 0.787-2.045 0.012-2.821l-3.512-3.511c-0.775-0.775-2.039-0.771-2.82 0.012l-2.17 2.17 6.32 6.32 2.17-2.17zM3.398 25.942l2.623 2.623 5.284-1.877-6.030-6.030-1.877 5.284zM20.65 4.943l-14.885 14.886 6.369 6.369 14.886-14.886-6.37-6.369zM8.657 19.816l11.981-11.981 0.698 0.698-11.982 11.982-0.697-0.699zM10.053 21.213l11.98-11.981 0.698 0.698-11.981 11.98-0.697-0.697zM11.449 22.608l11.981-11.981 0.697 0.698-11.98 11.981-0.698-0.698zM1.954 30.010l3.066-1.117-1.949-1.949-1.117 3.066z"></path>
</symbol>
<symbol id="icon-design_services" viewBox="0 0 24 24">
<path d="M16.219 11.531l1.594-1.594-3.75-3.75-1.594 1.594-4.125-4.172q-0.563-0.563-1.406-0.563t-1.406 0.563l-1.922 1.922q-0.563 0.563-0.563 1.406t0.563 1.406l4.125 4.125-4.734 4.781v3.75h3.75l4.781-4.781 4.125 4.172q0.469 0.469 1.008 0.539t1.031-0.094 0.773-0.445l1.922-1.922q0.563-0.563 0.563-1.406t-0.563-1.406zM9.188 11.063l-4.125-4.125 1.875-1.875 1.266 1.266-1.172 1.172 1.406 1.406 1.172-1.172 1.453 1.453zM17.063 18.938l-4.125-4.125 1.875-1.875 1.453 1.453-1.172 1.172 1.406 1.406 1.172-1.172 1.266 1.266zM20.719 7.031q0.281-0.281 0.281-0.703t-0.281-0.703l-2.344-2.344q-0.375-0.328-0.797-0.258t-0.609 0.258l-1.828 1.828 3.75 3.75z"></path>
</symbol>
<symbol id="icon-laptop" viewBox="0 0 32 32">
<path d="M28 22v-16c0-1.1-0.9-2-2-2h-20c-1.1 0-2 0.9-2 2v16h-4v6h32v-6h-4zM20 26h-8v-2h8v2zM26 22h-20v-15.996c0.001-0.001 0.002-0.003 0.004-0.004h19.993c0.001 0.001 0.003 0.002 0.004 0.004v15.996z"></path>
</symbol>
<symbol id="icon-embed2" viewBox="0 0 40 32">
<path d="M26 23l3 3 10-10-10-10-3 3 7 7z"></path>
<path d="M14 9l-3-3-10 10 10 10 3-3-7-7z"></path>
<path d="M21.916 4.704l2.171 0.592-6 22.001-2.171-0.592 6-22.001z"></path>
</symbol>
<symbol id="icon-terminal" viewBox="0 0 32 32">
<path d="M0 2v28h32v-28h-32zM30 28h-28v-24h28v24zM28 6h-24v20h24v-20zM14 16h-2v2h-2v2h-2v-2h2v-2h2v-2h-2v-2h-2v-2h2v2h2v2h2v2zM22 20h-6v-2h6v2z"></path>
</symbol>
<symbol id="icon-wordpress" viewBox="0 0 32 32">
<path d="M4 16c0 4.626 2.76 8.624 6.763 10.518l-5.724-15.274c-0.666 1.453-1.039 3.062-1.039 4.756zM24.101 15.41c0-1.445-0.533-2.445-0.989-3.223-0.608-0.963-1.179-1.778-1.179-2.741 0-1.074 0.836-2.074 2.015-2.074 0.053 0 0.104 0.006 0.155 0.009-2.135-1.905-4.979-3.069-8.103-3.069-4.192 0-7.881 2.095-10.026 5.268 0.282 0.009 0.547 0.014 0.772 0.014 1.255 0 3.198-0.149 3.198-0.149 0.647-0.037 0.723 0.889 0.077 0.963 0 0-0.65 0.074-1.373 0.111l4.37 12.66 2.626-7.671-1.869-4.989c-0.646-0.037-1.259-0.111-1.259-0.111-0.647-0.037-0.571-1 0.076-0.963 0 0 1.981 0.149 3.16 0.149 1.255 0 3.198-0.149 3.198-0.149 0.647-0.037 0.723 0.889 0.076 0.963 0 0-0.651 0.074-1.373 0.111l4.337 12.563 1.197-3.895c0.518-1.617 0.913-2.778 0.913-3.778zM16.211 17.022l-3.601 10.189c1.075 0.308 2.212 0.476 3.39 0.476 1.397 0 2.738-0.235 3.985-0.663-0.032-0.050-0.062-0.103-0.086-0.161l-3.688-9.842zM26.53 10.393c0.052 0.372 0.081 0.771 0.081 1.202 0 1.185-0.228 2.519-0.913 4.186l-3.665 10.321c3.568-2.026 5.967-5.79 5.967-10.102 0-2.032-0.533-3.943-1.47-5.607zM16 0c-8.837 0-16 7.163-16 16s7.163 16 16 16 16-7.163 16-16-7.163-16-16-16zM16 30c-7.732 0-14-6.268-14-14s6.268-14 14-14 14 6.268 14 14-6.268 14-14 14z"></path>
</symbol>
<symbol id="icon-css3" viewBox="0 0 32 32">
<path d="M4.762 1.516l-1.074 5.373h21.867l-0.684 3.47h-21.881l-1.059 5.372h21.865l-1.219 6.127-8.813 2.919-7.638-2.919 0.523-2.658h-5.372l-1.278 6.448 12.632 4.834 14.563-4.834 4.805-24.133z"></path>
</symbol>
</defs>
</svg>
